<svg width="1200" height="760" viewBox="0 0 1200 760" fill="none" xmlns="http://www.w3.org/2000/svg">
  <rect width="1200" height="760" fill="#111114"/>
  <rect x="86" y="76" width="1028" height="608" rx="28" fill="#18181d" stroke="#312e81"/>
  <rect x="142" y="136" width="460" height="468" rx="24" fill="url(#g)"/>
  <rect x="660" y="148" width="330" height="20" rx="10" fill="#f4f4f5"/>
  <rect x="660" y="194" width="420" height="14" rx="7" fill="#71717a"/>
  <rect x="660" y="226" width="360" height="14" rx="7" fill="#71717a"/>
  <rect x="660" y="298" width="150" height="42" rx="21" fill="#20202a" stroke="#4c1d95"/>
  <rect x="832" y="298" width="150" height="42" rx="21" fill="#20202a" stroke="#4c1d95"/>
  <rect x="660" y="400" width="260" height="64" rx="12" fill="#5b5cff"/>
  <rect x="142" y="632" width="92" height="18" rx="9" fill="#8b5cf6"/>
  <rect x="258" y="632" width="92" height="18" rx="9" fill="#3f3f46"/>
  <rect x="374" y="632" width="92" height="18" rx="9" fill="#3f3f46"/>
  <text x="660" y="274" fill="#f4f4f5" font-family="Inter, Arial" font-size="42" font-weight="700">$125.00</text>
  <text x="704" y="442" fill="white" font-family="Inter, Arial" font-size="22" font-weight="700">Add to cart</text>
  <text x="220" y="384" fill="white" font-family="Inter, Arial" font-size="54" font-weight="800">Product UI</text>
  <defs>
    <linearGradient id="g" x1="142" y1="136" x2="602" y2="604" gradientUnits="userSpaceOnUse">
      <stop stop-color="#5b5cff"/>
      <stop offset="1" stop-color="#8b5cf6"/>
    </linearGradient>
  </defs>
</svg>
