<svg width="1200" height="760" viewBox="0 0 1200 760" fill="none" xmlns="http://www.w3.org/2000/svg">
  <rect width="1200" height="760" fill="#111114"/>
  <rect x="82" y="72" width="1036" height="616" rx="28" fill="#18181d" stroke="#312e81"/>
  <rect x="134" y="128" width="290" height="504" rx="22" fill="#20202a"/>
  <rect x="470" y="128" width="596" height="88" rx="22" fill="#222231"/>
  <rect x="510" y="164" width="250" height="16" rx="8" fill="#8b5cf6"/>
  <rect x="470" y="248" width="596" height="92" rx="22" fill="#1f1f29" stroke="#3b3864"/>
  <rect x="512" y="282" width="28" height="28" rx="14" fill="#5b5cff"/>
  <rect x="566" y="281" width="300" height="14" rx="7" fill="#f4f4f5"/>
  <rect x="566" y="306" width="188" height="11" rx="5.5" fill="#71717a"/>
  <rect x="470" y="372" width="596" height="92" rx="22" fill="#1f1f29" stroke="#3b3864"/>
  <rect x="512" y="406" width="28" height="28" rx="14" fill="#8b5cf6"/>
  <rect x="566" y="405" width="276" height="14" rx="7" fill="#f4f4f5"/>
  <rect x="566" y="430" width="220" height="11" rx="5.5" fill="#71717a"/>
  <rect x="470" y="496" width="596" height="92" rx="22" fill="#1f1f29" stroke="#3b3864"/>
  <rect x="512" y="530" width="28" height="28" rx="14" fill="#5b5cff"/>
  <rect x="566" y="529" width="330" height="14" rx="7" fill="#f4f4f5"/>
  <rect x="566" y="554" width="180" height="11" rx="5.5" fill="#71717a"/>
  <text x="174" y="190" fill="#f4f4f5" font-family="Inter, Arial" font-size="38" font-weight="700">Todo App</text>
  <text x="174" y="236" fill="#a1a1aa" font-family="Inter, Arial" font-size="20">Productivity dashboard</text>
  <circle cx="248" cy="402" r="82" fill="url(#g)"/>
  <text x="214" y="414" fill="white" font-family="Inter, Arial" font-size="34" font-weight="700">72%</text>
  <defs>
    <linearGradient id="g" x1="166" y1="320" x2="330" y2="484" gradientUnits="userSpaceOnUse">
      <stop stop-color="#5b5cff"/>
      <stop offset="1" stop-color="#8b5cf6"/>
    </linearGradient>
  </defs>
</svg>
